<?xml version="1.0"?>
<svg width="400" height="400" xmlns="http://www.w3.org/2000/svg" xmlns:svg="http://www.w3.org/2000/svg">
 <g>
  <g id="mannschaften">
   <g id="uRbzhz_1_">
    <g id="svg_17">
     <path d="m251.350052,189.200012c0,-1.799988 0,-3.299973 0,-4.799988c0,-17.499985 0,-35 0,-52.499985c0,-2.500015 -0.200027,-5.600044 3.400009,-5.500008c3.399963,0 3.5,2.899971 3.5,5.500008c0,0.399963 0,0.699997 0,1.099976c0.099976,20.900024 0.099976,41.699997 0.399963,62.600021c0,2.099976 1.100037,4.699966 2.700012,6c1.200012,1 4.5,1.199951 5.700012,0.300003c1.700012,-1.200027 3.299988,-3.900024 3.399963,-6c0.300049,-12.40004 0.100037,-24.700027 0,-37.100052c-0.099976,-10.899948 -0.099976,-21.699936 -0.599976,-32.599968c-0.400024,-7.500008 -7.5,-14.70002 -14.900024,-14.900032c-14.199951,-0.399963 -28.499985,-0.299988 -42.699951,0c-6.300034,0.100037 -12.5,5.700012 -13.400024,11.300049c1.700027,0 3.299988,0 4.900024,0c11.599991,0.399963 19,8 19,19.599976c0,10.90004 0,21.700027 0.099976,32.599976c0,4.700012 0,9.400024 0,14.300064c9.399963,0.09996 18.699951,0.09996 28.500015,0.09996zm-106.200027,-52.400024c1.599976,0 2.599976,0 3.599976,0c13.800064,0.099976 21.100037,7.500015 21.200027,21.400024c0,13.699951 0,27.5 0.100037,41.199966c0,1.300034 0,2.600037 0,3.800034c9.799973,0 19.09996,0 28.5,0c0,-1.700012 0,-3 0,-4.400024c0,-17.499985 0,-35 0,-52.499985c0,-2.599991 -0.5,-5.800003 3.399963,-5.700027c4,0 3.199997,3.299988 3.199997,5.800003c0.099976,6 0,12 0.099976,18c0.100052,15.400009 0.300064,30.700012 0.40004,46.100021c0,3.099976 1.299988,5.299988 4.299988,6.299988c2.700012,0.799988 5.100037,-0.099976 6.400024,-2.499985c0.799973,-1.500015 1.099976,-3.599991 1.099976,-5.40004c0,-22 -0.200027,-44 -0.300003,-65.899948c-0.09996,-9.500015 -6.799973,-17.20002 -16.400024,-17.500008c-13.299973,-0.500008 -26.699936,-0.20002 -40,-0.20002c-0.5,0 -1,0.099976 -1.5,0.20002c-6.59996,1 -11.200012,4.700005 -14.099976,11.29998zm97.500015,113.600037c0,0 0,0 0,0c0.09996,14.5 0.09996,29 0.09996,43.500031c0,4.699951 2.400024,7.299927 6.300064,7.200012c3.699936,-0.100037 5.699936,-2.500061 5.699936,-7.200012c0,-20.700043 0,-41.500031 0,-62.200043c0,-7.200012 -0.099976,-14.5 -0.099976,-21.699997c0,-1.500015 0,-3 -0.299988,-4.500015c-0.600037,-3.699936 -2.900009,-5.399948 -6.600037,-5c-3.399948,0.40004 -5.09996,2.40004 -5.09996,5.800049c0,14.699966 0,29.399963 0,44.099976zm-72.700012,-36.100021c0,1.099976 0,2.199997 0,3.299973c-0.099991,4.200012 1.09996,8.900024 -4,11.500015c-0.5,0.299988 -0.5,1.799973 -0.5,2.799973c0,25.700012 0,51.499969 0,77.200043c0,5 2.200012,7.699951 6.200012,7.599976c3.899948,0 5.799988,-2.5 5.799988,-7.5c0,-22.899963 0,-45.699982 0,-68.600006c0,-6.499985 0,-13 -0.099976,-19.499985c-0.100052,-4.799988 -2.500015,-7 -7.400024,-6.799988zm52.799973,-14.500015c0,2.200027 0,4 0,5.799988c0.099976,3.700027 0,7.299988 -4.09996,9.200012c-0.500015,0.300003 -0.700012,1.700012 -0.700012,2.599991c0.09996,26.100021 0.299973,52.199997 0.5,78.399979c0,4.700073 2.09996,6.900024 6.09996,6.800049c3.799988,-0.099976 5.799988,-2.5 5.799988,-7.099976c-0.099976,-29.500031 -0.199951,-59.000031 -0.299988,-88.500015c-0.09996,-4.700012 -1.5,-6.200027 -7.299988,-7.200027zm-95.399956,-70.499985c8.20002,0 14.900017,-6.500015 14.900017,-14.599991c0,-7.900024 -6.800034,-14.700012 -14.900017,-14.700012c-8.199989,0 -15.199989,6.899963 -15.100014,14.899963c0.100006,8.100037 6.699951,14.40004 15.100014,14.40004zm104.299995,-57.400009c-8.099976,-0.100006 -14.90004,6.299988 -15.099976,14.399994c-0.200012,7.900024 6.799988,14.900024 15,14.900024c8,0 14.699936,-6.400024 14.799988,-14.200012c0.299988,-8.299988 -6.300064,-15 -14.700012,-15.100006zm-84.600052,31.300018c8.40004,0 14.799988,-6.099976 14.90004,-14.299988c0.09996,-8.200012 -6.800049,-15.100006 -14.90004,-15c-8.200012,0.099976 -14.700012,6.599976 -14.700012,14.799988c0.100052,8.200012 6.300064,14.399963 14.700012,14.5zm31.600052,12c8.299988,0 14.900024,-6.200012 15,-14.400024c0.09996,-8 -7,-14.999969 -15.099976,-14.899963c-8.100037,0.099976 -14.700027,6.700012 -14.700027,14.799988c0.099991,8.099976 6.500015,14.5 14.800003,14.5z" id="svg_18" fill="#ffffff"/>
     <path d="m91.949982,157.000015c0.400055,-1.700012 0.700012,-3.40004 1.200073,-5.099976c2.399933,-7.700027 9,-12.700027 17.799927,-12.900024c12.100006,-0.200027 24.200043,-0.300003 36.300018,0c11.700027,0.299988 18.5,9.299988 18.5,18.900024c-0.09996,21.899948 0.299988,43.699936 0.400024,65.59996c0,5.900024 -4.299988,9.099976 -8.900024,6.800003c-2.59996,-1.299988 -3.099976,-3.599991 -3.099976,-6.299988c-0.100037,-19 -0.199997,-38 -0.299988,-57c0,-2.900024 -0.100037,-5.700012 -0.100037,-8.599991c0,-2.300034 -0.899963,-3.900024 -3.5,-3.800049c-2.59996,0.100037 -2.899948,1.800049 -2.899948,3.900024c-0.100052,18.099976 -0.200027,36.200012 -0.300064,54.299988c0,1.500015 0,3 0,4.700012c-12.09996,0 -23.899963,0 -36.199951,0c0,-1.299988 0,-2.59996 0,-3.900024c0,-17.899963 0,-35.699936 0,-53.59996c0,-2.200027 1,-5.300003 -2.800079,-5.300003c-3.899902,0 -3.599915,3 -3.699921,5.700012c-0.100006,21.199951 -0.100006,42.500015 -0.400055,63.699966c0,2.100021 -1.499939,4.900024 -3.099945,6.100021c-1.300049,0.899979 -4.200043,0.200012 -6.100037,-0.400024c-1.100006,-0.299988 -1.800018,-1.899948 -2.599945,-3c-0.200073,-23.299988 -0.200073,-46.499985 -0.200073,-69.799973z" id="svg_19" fill="#ffffff"/>
     <path d="m251.350052,189.200012c-9.799988,0 -19,0 -28.799988,0c0,-4.799988 0,-9.599976 0,-14.299973c0,-10.900024 -0.100037,-21.700027 -0.100037,-32.600037c0,-11.599991 -7.399963,-19.199966 -19,-19.599991c-1.599991,-0.099976 -3.199966,0 -4.899963,0c1,-5.599976 7.199997,-11.200012 13.399963,-11.299988c14.199997,-0.299988 28.5,-0.299988 42.699997,0c7.400024,0.200012 14.5,7.399963 14.900024,14.899971c0.5,10.800056 0.5,21.70002 0.599976,32.600044c0.100037,12.399963 0.299988,24.699997 0,37.099976c0,2.100037 -1.599976,4.699997 -3.399963,6c-1.300049,0.900024 -4.5,0.699997 -5.700012,-0.300003c-1.5,-1.299988 -2.600037,-3.900024 -2.700012,-6c-0.299988,-20.900024 -0.299988,-41.699997 -0.400024,-62.59996c0,-0.40004 0,-0.700027 0,-1.100037c0,-2.599991 -0.099976,-5.500008 -3.5,-5.500008c-3.599976,0 -3.399948,2.999992 -3.399948,5.500008c0,17.499985 0,35 0,52.499985c0.299988,1.40004 0.299988,2.900024 0.299988,4.700012z" id="svg_20" fill="#ffffff"/>
     <path d="m145.150024,136.799988c3,-6.599976 7.500015,-10.400017 14.200027,-11.400024c0.499985,-0.099976 1,-0.199951 1.499985,-0.199951c13.299988,0 26.700027,-0.300049 40,0.199951c9.500015,0.300056 16.299988,8.000015 16.399963,17.5c0.100052,22 0.300064,44 0.300064,65.900024c0,1.799988 -0.300064,3.799988 -1.100037,5.400024c-1.300003,2.399963 -3.700027,3.299988 -6.399963,2.5c-3,-0.900024 -4.300064,-3.100037 -4.300064,-6.300034c-0.09996,-15.399963 -0.299973,-30.699966 -0.399948,-46.099976c-0.100052,-6 0,-12 -0.100052,-18c0,-2.500015 0.800064,-5.800003 -3.199936,-5.800003c-3.90004,0 -3.400024,3.200012 -3.400024,5.700012c0,17.5 0,35 0,52.5c0,1.399979 0,2.699966 0,4.399979c-9.40004,0 -18.700012,0 -28.500015,0c0,-1.200027 0,-2.500015 0,-3.799988c0,-13.700027 0,-27.500015 -0.09996,-41.200012c0,-13.899979 -7.300064,-21.300003 -21.200027,-21.399979c-1.100037,0.099976 -2.100037,0.099976 -3.700012,0.099976z" id="svg_21" fill="#ffffff"/>
     <path d="m242.65004,250.400024c0,-14.700012 0,-29.499985 0,-44.200012c0,-3.399948 1.700012,-5.399948 5.09996,-5.799988c3.700027,-0.400009 5.900024,1.299988 6.600037,5c0.200012,1.500015 0.299988,3 0.299988,4.500015c0.099976,7.200012 0.099976,14.499985 0.099976,21.699997c0,20.700012 0,41.5 0,62.200043c0,4.599976 -2,7.099976 -5.699936,7.199951c-3.90004,0.100037 -6.300064,-2.5 -6.300064,-7.199951c-0.09996,-14.400055 -0.09996,-28.900055 -0.09996,-43.400055c0,0 0,0 0,0z" id="svg_22" fill="#ffffff"/>
     <path d="m189.950027,264.700012c0,-14.699997 0,-29.5 0,-44.200012c0,-3.399948 1.700012,-5.399948 5.09996,-5.799988c3.700012,-0.400009 5.90004,1.300003 6.600052,5c0.199997,1.5 0.299988,3 0.299988,4.5c0.09996,7.200012 0.09996,14.5 0.09996,21.700027c0,20.699997 0,41.500015 0,62.200027c0,4.599915 -2,7.099915 -5.699936,7.199951c-3.900024,0.100037 -6.300064,-2.500061 -6.300064,-7.199951c-0.09996,-14.500061 0,-28.900055 -0.09996,-43.400055c0,0 0,0 0,0z" id="svg_23" fill="#ffffff"/>
     <path d="m113.949982,278.599976c0,-14.700012 0,-29.499985 0,-44.199997c0,-3.399963 1.700012,-5.399963 5.099976,-5.800003c3.700043,-0.400024 5.900055,1.299988 6.600075,5c0.200012,1.500015 0.299988,3 0.299988,4.500015c0.099976,7.200012 0.099976,14.499985 0.099976,21.699997c0,20.700012 0,41.500031 0,62.200043c0,4.599976 -2.000008,7.099976 -5.699959,7.199951c-3.899994,0.100037 -6.300079,-2.5 -6.300079,-7.199951c0,-14.5 0,-29 -0.099976,-43.400055c0.099976,0 0.099976,0 0,0z" id="svg_24" fill="#ffffff"/>
     <path d="m138.150024,278.599976c0,-14.700012 0,-29.499985 0,-44.199997c0,-3.399963 1.700012,-5.399963 5.099976,-5.800003c3.700027,-0.400024 5.900024,1.299988 6.600037,5c0.200027,1.500015 0.299988,3 0.299988,4.500015c0.099976,7.200012 0.099976,14.499985 0.099976,21.699997c0,20.700012 0,41.500031 0,62.200043c0,4.599976 -2,7.099976 -5.699936,7.199951c-3.900024,0.100037 -6.300064,-2.5 -6.300064,-7.199951c0,-14.5 0,-29 -0.099976,-43.400055c0.099976,0 0.099976,0 0,0z" id="svg_25" fill="#ffffff"/>
     <path d="m169.950027,214.300003c4.900009,-0.200012 7.299973,2 7.400024,6.900009c0.099976,6.5 0.099976,13 0.099976,19.5c0,22.899963 0,45.699921 0,68.600006c0,5 -1.90004,7.399963 -5.799988,7.499939c-4,0 -6.200012,-2.599976 -6.200012,-7.599976c0,-25.699951 0,-51.499969 0,-77.199966c0,-0.900024 0,-2.500015 0.5,-2.800003c5.199997,-2.600037 3.900009,-7.300049 4,-11.5c0,-1.200012 0,-2.299988 0,-3.400009z" id="svg_26" fill="#ffffff"/>
     <path d="m222.75,199.799988c5.700027,0.900024 7.099976,2.400024 7.099976,7.099976c0.100052,29.500015 0.200012,59 0.300049,88.499969c0,4.700073 -1.900024,7.100098 -5.800049,7.100098c-4,0.099976 -6,-2.100098 -6.099976,-6.800049c-0.200012,-26.100006 -0.299973,-52.199982 -0.5,-78.399979c0,-0.900024 0.200027,-2.299988 0.700027,-2.599991c4.09996,-1.900024 4.09996,-5.5 4.09996,-9.200012c0.200012,-1.700012 0.200012,-3.499985 0.200012,-5.700012z" id="svg_27" fill="#ffffff"/>
     <path d="m127.350044,129.300003c-8.299995,0 -14.900002,-6.300003 -15.100014,-14.40004c-0.199982,-8 6.900024,-15 15.100014,-14.899963c8.000008,0 14.900017,6.799988 14.900017,14.700012c-0.100037,8.099976 -6.700073,14.599991 -14.900017,14.599991z" id="svg_28" fill="#ffffff"/>
     <path d="m231.65004,71.899994c8.400024,0.100006 14.900024,6.799988 14.700012,15c-0.200027,7.800018 -6.900024,14.199982 -14.799988,14.199982c-8.200012,0 -15.300064,-7 -15,-14.899994c0.199936,-7.899994 6.999924,-14.399994 15.099976,-14.299988z" id="svg_29" fill="#ffffff"/>
     <path d="m198.450027,57.5c8.400009,0.100006 14.900024,6.799988 14.699997,15c-0.199997,7.799988 -6.900024,14.200012 -14.799973,14.200012c-8.200027,0 -15.300064,-7 -15,-14.900024c0.199936,-8 7,-14.399994 15.099976,-14.299988z" id="svg_30" fill="#ffffff"/>
     <path d="m147.049988,103.200012c-8.400024,0 -14.700012,-6.299988 -14.700012,-14.600006c0,-8.100006 6.5,-14.600006 14.700012,-14.799988c8.099991,-0.100006 15,6.799988 14.90004,15c-0.099991,8.299957 -6.40004,14.399994 -14.90004,14.399994z" id="svg_31" fill="#ffffff"/>
     <path d="m178.65004,115.200012c-8.299988,0 -14.800003,-6.400024 -14.800003,-14.5c0,-8 6.599991,-14.600006 14.700027,-14.799988c8.099976,-0.100006 15.199936,6.899963 15.099976,14.899963c-0.100052,8.200012 -6.600052,14.400024 -15,14.400024z" id="svg_32" fill="#ffffff"/>
    </g>
   </g>
   <circle cx="282.450014" cy="317.000001" r="25.6" id="svg_33" fill="#ffffff"/>
  </g>
 </g>
</svg>