<?xml version="1.0"?>
<svg width="400" height="400" xmlns="http://www.w3.org/2000/svg" xmlns:svg="http://www.w3.org/2000/svg">
 <g id="mitteilungen">
  <path d="m298.950012,64.150024l0,260.999939l-15.599976,0l0,10.700012l-182.300049,0l0,-260.999939l15.600006,0l0,-10.700012l182.300018,0l0,0zm-26.900024,252.499939l0,-11.200012l0,-219.299927l-138.5,0l-11.200012,0l-9.999969,0l0,238.499939l159.699982,0l0,-8zm-16.5,-213.699951l-131.200012,0l0,3.799988l131.299988,0l0,-3.799988l-0.099976,0zm-66,182.300018l-65.200012,0l0,3.799957l65.200012,0l0,-3.799957zm-20.800049,-159.000031l-12.200012,0l0,3.799988l12.400024,0l-0.200012,-3.799988zm57.599976,23.200012l-15.199951,0l-0.200073,3.799988l15.400024,0l0,-3.799988zm-56.499939,0l-45.5,0l0,3.799988l45.700012,0l-0.200012,-3.799988zm38.999939,50.299988l18.199951,0l0,-3.799988l-18,0l-0.199951,3.799988zm-62.799927,-73.5l-21.799988,0l0,3.799988l21.799988,0l0,-3.799988zm-1.5,46.5l-20.200012,0l0,3.800018l20.200012,0l0,-3.800018zm24,27l3,0l0.599976,0l-0.199951,-3.799988l-0.400024,0l-3,0l0,3.799988zm-1.200012,42.700012l-7.799988,0l0,3.799988l8.700012,0c-0.300049,-1.200012 -0.700012,-2.5 -0.900024,-3.799988zm-3.299988,-23.200012l-18.799988,0l0,3.799988l18.799988,0l0,-3.799988zm57.799927,23.200012l-8.300049,0c-0.199951,1.299988 -0.599976,2.5 -0.899902,3.799988l9.199951,0l0,-3.799988zm14.200073,-23.200012l-28.5,0c1,1.099991 1.900024,2.399994 2.699951,3.799988l25.800049,0l0,-3.799988zm-81,-42.799988l16,0l-0.200012,-3.800018l-15.799988,0l0,3.800018zm60.799927,0l39,0l0,-3.800018l-39,0l0,3.800018zm21.700073,23.299988l17.199951,0l0,-3.799988l-17.199951,0l0,3.799988zm9,23.200012l8.199951,0l0,-3.700012l-8.199951,0l0,3.700012zm-14.200073,23.299988l22.5,0l0,-3.799988l-22.5,0l0,3.799988zm-20.199951,-120l-0.199951,3.799988l42.899902,0l0,-3.799988l-42.699951,0zm-54.099976,69.700012l-33.799988,0l0,3.799988l33.799988,0l0,-3.799988zm78.799927,-42.700012l18,0l0,-3.799988l-18,0l0,3.799988zm-101.999939,66l-10.5,0l0,3.799988l10.5,0l0,-3.799988zm-10.5,50.200043l24.799988,0l0,-3.799988l-24.799988,0l0,3.799988zm47.200012,-3.700043l-12,0l0,3.800018l12,0l18,0l7.5,0l0,-3.800018l-7.5,0l-18,0zm36,3.700043l47.199951,0l0,-3.799988l-47.199951,0l0,3.799988zm-83.200012,-23.200043l24.799988,0l0,-3.799988l-24.799988,0l0,3.799988zm66.200012,8.200043c9.5,0 15.599976,-7.5 15.599976,-17.5c-0.199951,-10.200012 -6.299927,-17.5 -15.599976,-17.5c-9.299988,0 -15.799988,7.299988 -15.799988,17.5c-0.000061,9.999969 6.299988,17.5 15.799988,17.5zm10,-44.500031l3.900024,-87l-27.900024,0l4,87l20,0z" fill="#ffffff"/>
 </g>
</svg>