<?xml version="1.0"?>
<svg width="400" height="400" xmlns="http://www.w3.org/2000/svg" xmlns:svg="http://www.w3.org/2000/svg">
  <g id="termine">
   <g id="svg_11">
    <path d="m303.849976,83.099976c0,73.800018 0,147.5 0,221.200012c-3.299927,3.200012 -6.599976,6.200012 -9.799988,9.5c-5.299927,5.5 -10.499939,11.099976 -15.700012,16.700012c-60.799927,0 -121.5,0 -182.199951,0c0,-87 0,-174 0,-261c60.699951,0 121.5,0 182.199951,0c1.100037,0.699982 2.200073,1.5 3.300049,2.199982c7.399963,3.899994 14.799988,7.600006 22.199951,11.399994l0,0zm-193.299957,232.400024c16.600006,-0.400024 31.799957,-3.800049 45.600006,-12.400024c18.600037,-11.5 30.400024,-28.400024 38.899963,-48.099976c5.100037,-11.900024 8.600037,-24.300018 10.100037,-37.5c1.300049,0.099976 2.400024,0.199982 3.5,0.299988c13.300049,0.899994 26.399963,-0.200012 39,-5c12,-4.5 16.199951,-10.799988 16.199951,-23.5c0,-22.700012 0,-45.5 0,-68.200012c0,-4.299988 0,-8.699982 0,-13c-5.399902,0.200012 -7.299927,2.200012 -8.299927,8.600006c-1.599976,0 -3.099976,0 -4.700073,0c-0.399902,-5.799988 -2.599976,-8.699982 -6.799988,-8.699982c-1.799988,0 -4.099915,0.299988 -5.099915,1.399994c-1.800049,1.899994 -2.800049,4.600006 -4.300049,7.299988c-0.899963,0 -2.5,0 -4,0c-0.300049,-5.699982 -2.600037,-8.699982 -6.800049,-8.699982c-1.799988,0 -4.099915,0.399994 -5.099915,1.5c-1.799988,1.899994 -2.700073,4.599976 -4.200012,7.199982c-0.900024,0 -2.500061,0 -4,0c-0.300049,-5.799988 -2.799988,-8.699982 -7.200073,-8.799988c-4.899902,-0.100006 -7.299988,2.600006 -8.099976,8.899994c-1.599976,0 -3.200012,0 -4.799927,0c-0.100098,-5.600006 -2.600098,-8.700012 -7.100098,-8.899994c-5,-0.200012 -7.399902,2.399994 -8.199951,8.899994c-1.599976,0 -3.199951,0 -4.800049,0c-0.299988,-5.700012 -2.799927,-8.700012 -7.199951,-8.899994c-5,-0.200012 -7.399963,2.299988 -8.199951,8.899994c-1.600098,0 -3.100098,0 -4.700073,0c-0.499939,-5.899994 -2.900024,-8.700012 -7.299927,-8.899994c-4.900085,-0.200012 -7.100098,2.199982 -8.200012,8.899994c-1.600037,0 -3.100037,0 -4.700073,0c-0.399963,-5.700012 -2.700012,-8.5 -6.899963,-8.799988c-5.100006,-0.300018 -7.199982,1.899994 -8.600006,8.899994c-1.200012,0.100006 -2.399994,0.299988 -3.700012,0.399994c-0.299988,65.900024 -0.299988,131.900024 -0.299988,198.200012zm58.199982,-3.200012c29.199951,-7.399963 53,-23.099976 71,-47.200012c9.299927,-12.5 16.099976,-26.299988 19.900024,-41.899963c-3.800049,1.499969 -6.800049,2.899994 -10,4c-9.5,3.299988 -19.400024,4.499969 -29.400024,4.899994c-1.799988,0.100006 -3.099976,0.299988 -3.700012,2.699982c-7.700012,30.700012 -21.700012,57.799988 -47.799988,77.5zm94.900024,-57.200012c-14.800049,26.700012 -35.800049,46.799988 -63.600037,61c21.899963,0 42.700012,0 63.600037,0c0,-20.399963 0,-40.700012 0,-61z" id="svg_12" fill="#ffffff"/>
    <path d="m124.75,139.699982c2.299927,-2.499969 4.299927,-4.499969 6.599915,-7c3,3.400024 6,6.700012 9.500061,10.500031c3.400024,-3.900024 6.300049,-7.300018 9.499939,-11c2.80011,2.699982 4.900085,4.599976 7.400085,7c-3.5,3.099976 -7,6.099976 -10.299988,9c3.700012,3.899994 6.799988,7.099976 9.899902,10.399994c-2.099915,2.099976 -4.099915,4.099976 -6.799927,6.799988c-2.799988,-3.5 -5.600037,-6.899994 -9.099976,-11.299988c-3.700012,4.599976 -6.500061,8.100006 -9.500061,11.899994c-3.099976,-3 -5.299927,-5 -7.499939,-7.100006c3.399963,-3.399994 6.599915,-6.5 9.700012,-9.5c-3.400024,-3.399994 -6.5,-6.600006 -9.400024,-9.700012z" id="svg_13" fill="#ffffff"/>
    <path d="m183.150024,212.099976c-3.200073,-3.699982 -6.100037,-7.099976 -9.400024,-11c-3.400024,3.900024 -6.400024,7.300018 -9.5,10.900024c-2.599976,-2.5 -4.599976,-4.400024 -7.099976,-6.799988c3.599976,-3.100037 7,-6.100037 10.799927,-9.400024c-4.099976,-3.799988 -7.299927,-6.899994 -10.699951,-10.100006c2.300049,-2.199982 4.400024,-4.100006 6.799988,-6.399994c2.899963,3.299988 5.899963,6.700012 9.600037,10.799988c3.5,-4.299988 6.399963,-7.699982 9.5,-11.399994c2.699951,2.600006 4.799927,4.500031 7.400024,7c-3.600098,3.100006 -7.100037,6 -10.800049,9.200012c4,3.899994 7.099976,7 10.5,10.199982c-2.200012,2.200012 -4.200012,4.200012 -7.099976,7z" id="svg_14" fill="#ffffff"/>
    <path d="m143.849976,277.299988c-2.799988,-3.5 -5.599976,-7 -9.099915,-11.299988c-3.500061,4.299988 -6.300049,7.799988 -9.400085,11.599976c-2.699951,-2.899994 -4.599945,-5 -6.799957,-7.399963c3.299957,-3 6.600006,-6.100037 10.299957,-9.400024c-3.799988,-3.599976 -7,-6.700012 -10.399963,-9.899994c2.199982,-2.200012 4.200012,-4.200012 6.599976,-6.5c3.100037,3.399994 6.100037,6.800018 9.299988,10.199982c4,-3.699982 7.300049,-6.899994 10.800049,-10.199982c2.199951,2.200012 4.099976,4.299988 6.299988,6.600006c-3.299988,3.099976 -6.500061,6.200012 -9.799988,9.200012c3.399963,3.399963 6.599976,6.499969 9.699951,9.499969c-2.400024,2.399994 -4.5,4.399994 -6.5,6.500031c-0.299927,0.399963 -0.699951,0.699951 -1,1.099976z" id="svg_15" fill="#ffffff"/>
    <path d="m201.049988,165.699982c2.299988,-2.499969 4.299988,-4.599976 6.600037,-7.199982c3.199951,3.600006 6.199951,6.899994 9.399963,10.5c3.700073,-3.5 7,-6.700012 10.299988,-9.799988c2,2.199982 4,4.199982 6.100098,6.499969c-2.900024,2.800018 -6.200073,5.900024 -9.700012,9.100006c3.599915,3.5 6.799988,6.600006 10.299927,10c-2.299927,2.100006 -4.399963,4.100006 -7.399963,6.800018c-2.600037,-3.399994 -5.300049,-7.100006 -8.300049,-10.900024c-4.399902,4.200012 -7.599915,7.300018 -11.099976,10.600006c-2,-2.199982 -3.900024,-4.299988 -5.900024,-6.600006c2.900024,-2.799988 6.200073,-6 9.700012,-9.299988c-3.499939,-3.600006 -6.799988,-6.600006 -10,-9.700012z" id="svg_16" fill="#ffffff"/>
   </g>
  </g>
</svg>