<?xml version="1.0"?>
<svg width="400" height="400" xmlns="http://www.w3.org/2000/svg" xmlns:svg="http://www.w3.org/2000/svg">
 <g>
  <g id="unterstuetzer">
   <g id="svg_1">
    <path fill="#ffffff" d="m282.650024,179.750031c-6.799988,3 -13.600067,5.800018 -20.200043,8.900024c-5.299988,2.5 -10.599976,3.299988 -16.299988,1.699982c-2.900024,-0.799988 -5.799988,-1.5 -8.700012,-2.199982c-7.799988,-1.900024 -15.599976,-4 -23.599976,-5.400024c-3,-0.5 -6.600037,-0.099976 -9.299988,1.200012c-14.200012,6.5 -28.100037,13.399994 -42.300049,20.299988c6.700012,9.200012 15.300049,11.600006 25.200012,8.799988c5.700012,-1.599976 11.300049,-3.899963 16.599976,-6.499969c6.500061,-3.200012 12.300049,-3.100006 18.100037,1.299988c4,3 8.200012,5.600006 12.5,8.100006c16.399963,9.5 33,18.600006 46.300018,32.599976c1.400024,1.5 4.400024,2.700012 6.299988,2.299988c12.799988,-2.599976 24.600037,-7.299988 33.299988,-17.899963c-12.399963,-17.700012 -25.099915,-35.300018 -37.899963,-53.200012zm-152.400055,102.100006c-0.299988,4.399994 2.600037,8.899994 6.400024,9.499969c2,0.300049 5.200012,-1.099976 6.599976,-2.799927c4.800049,-5.800049 9.100037,-12.100037 13.600037,-18.200043c2.599976,-3.700012 2.099976,-7.200012 -1.299988,-9.799988c-3.5,-2.700012 -7.400024,-2.200012 -10.200012,1.299988c-3.900024,4.799988 -7.900024,9.600006 -11.700012,14.600006c-1.599976,1.899994 -2.699951,4.299988 -3.400024,5.399994zm15.600037,16.199982c0.200012,1.099976 0.299988,1.799988 0.5,2.5c1.299988,4 7.700012,6.899963 9.799988,4.299988c5.400024,-6.5 10.600037,-13.099976 15.600037,-19.900024c0.899963,-1.199951 0.899963,-3.599976 0.299988,-5.099976c-2,-4.799988 -7.599976,-5.699982 -11.200012,-1.600006c-4.899963,5.500031 -9.299988,11.300018 -13.899963,17.000031c-0.5,0.799988 -0.700073,2 -1.100037,2.799988zm32.399963,-4.100037c-0.799988,0.5 -2.899963,1.200012 -4.199951,2.600037c-4,4.399963 -7.700012,9.100037 -11.400024,13.799988c-0.400024,0.5 -0.799988,1.400024 -0.700012,2c1.299988,5.300049 10.600037,8.300049 14.400024,4.300049c3.400024,-3.600037 6.200012,-7.700073 9,-11.800049c3.299988,-5.099976 0.200012,-10.599976 -7.100037,-10.900024zm-54.299927,-18.499969c0.5,-0.399994 0.799988,-0.600006 1,-0.899994c2.299988,-2.800018 4.599976,-5.600006 6.799988,-8.399994c1.700012,-2.300018 3.5,-4.600006 4.700012,-7.100006c0.399963,-0.900024 -0.300049,-3.400024 -1,-3.600006c-3.100037,-1.099976 -6.400024,-1.399994 -8.900024,1.5c-1.5,1.699982 -2.799988,3.5 -4.299988,5.199982c-4.000031,5.000031 -3.600037,8.700043 1.700012,13.300018z" id="svg_2"/>
    <path d="m2.75,79.650024c1.100006,-2.600006 2.300018,-0.800018 3.300018,0c18.100006,13.600006 36.299988,27.300018 54.399994,41c19.799988,14.899994 39.700012,29.899994 59.5,44.800018c5.299957,4 5.800018,5.299988 3.699982,11.599976c-7.599976,22.5 -15.099976,44.900024 -22.699982,67.400024c-0.200012,0.5 -0.399994,0.899994 -0.700012,1.699982c-9.399994,-3.300018 -18.699982,-6.600006 -28,-9.899994c-22.5,-8 -44.899994,-16 -67.399994,-24c-0.700012,-0.200012 -1.399994,-0.299988 -2.100006,-0.5c0,-44.100006 0,-88.100006 0,-132.100006z" id="svg_3" fill="#ffffff"/>
    <path d="m209.750031,321.949982c-4.600037,-3.5 -9.300049,-6.899963 -13.800049,-10.599976c-0.899963,-0.699951 -1.399963,-2.799988 -1.099976,-4c2.799988,-10.799988 1.299988,-14.599976 -8.200012,-21c-1.799988,-1.200012 -2.899963,-3.399994 -4.200012,-5.299988c-1.799988,-2.800018 -3.299988,-5.800018 -5.299988,-8.399994c-3.799988,-5 -8.099976,-9.800018 -11.900024,-14.800018c-3.199951,-4.100006 -6.899963,-6.899994 -12.099976,-7.899994c-4.5,-0.899994 -9,-1.899994 -13.200012,-3.599976c-5.099976,-2.100006 -10,-1.900024 -14.799988,0.099976c-2.299988,1 -3.799988,0.900024 -5.899994,-0.899994c-7.100006,-6.199982 -7.699982,-8.299988 -4.699982,-17.199982c5.099976,-14.600037 9.899963,-29.400024 14.899963,-44.100006c1.799988,-5.200012 2.400024,-6 7.700012,-5.600037c13.799988,1.200012 27.5,2.800018 41.200012,4.200012c1.200012,0.100006 2.5,0.299988 4.299988,0.500031c-0.899963,0.799957 -1.5,1.399963 -2.099976,1.699982c-5.600037,2.899994 -11.300049,5.699982 -16.900024,8.699982c-12.099976,6.200012 -12.699951,15 -1.899963,23.300018c9,6.899994 19.099976,7.300018 29.499939,4.799988c3.800049,-0.899994 7.600037,-2.399994 11.100037,-4.200012c7.400024,-3.799988 14.299988,-2.5 20.799988,1.800018c8.799988,5.800018 17.5,11.900024 26.200012,17.900024c8.799988,6.099976 17.700012,12 26.500031,18.199982c6,4.199982 8,10.899994 5.799988,17.799988c-2.199951,6.800018 -7.199951,8.5 -12.899994,4.200012c-10.299988,-7.700012 -20.500061,-15.400024 -30.700073,-23.199982c-4.499939,-3.400024 -8.899963,-6.800018 -13.299927,-10.200043c-0.300049,-0.199982 -0.600037,-0.399994 -0.900024,-0.599976c-2.200012,-1.299988 -4.700012,-2.199982 -6.299988,0.299988c-1.400024,2.200012 -0.300049,4.500031 1.799988,6.100006c6.599976,4.899994 13.099976,9.899994 19.700012,14.899994c8.299988,6.200012 16.599976,12.300018 24.899963,18.5c5.700012,4.300049 5.900024,7.799988 1,13c-3.599976,3.799988 -6.900024,4 -11.5,0.400024c-12.699951,-9.700012 -25.299988,-19.400024 -38,-29.100006c-4.099976,-3.100006 -7.5,-3.600006 -9.299988,-1.400024c-1.5,1.800018 0.099976,4.600006 4.200012,7.700012c11.599976,8.799988 23.200012,17.600006 34.899963,26.399994c5.300049,4 6.100037,5.5 4.400024,8.599976c-2.5,4.600037 -8.5,7.600037 -12.899963,5.5c-3.900024,-1.799927 -7.400024,-4.5 -10.900024,-7.099976c-6,-4.5 -11.799988,-9.200012 -17.700012,-13.799988c-2,-1.600037 -4.099976,-2.700012 -6.099976,0c-2,2.599976 -1,4.599976 1.299988,6.299988c6.5,4.900024 12.899963,9.700012 20,15.099976c-2.700012,2.600037 -5.100037,4.800049 -7.399963,7c-2.400024,0.900085 -3.600037,1 -6.200012,0z" id="svg_4" fill="#ffffff"/>
    <path d="m397.25,205.650024c-1.800049,1.600006 -3.399963,3.5 -5.399963,4.899994c-16.099976,11.299988 -32.400085,22.5 -48.600037,33.700012c-0.899963,0.599976 -1.899963,1.200012 -3.099976,2.100006c-18,-24.899994 -35.900024,-49.700012 -54.099976,-74.800018c37.099976,-22.899994 74.099976,-45.799988 111.099976,-68.599976c0.099976,34.199982 0.099976,68.5 0.099976,102.699982z" id="svg_5" fill="#ffffff"/>
    <path d="m282.650024,179.750031c12.899963,17.900024 25.5,35.5 38.100037,53.099976c-8.700073,10.700012 -20.500061,15.400024 -33.30011,17.900024c-1.899963,0.399994 -4.899963,-0.799988 -6.299927,-2.299988c-13.300018,-13.900024 -29.900055,-23.100006 -46.300018,-32.600006c-4.299988,-2.5 -8.5,-5.199982 -12.5,-8.100006c-5.900024,-4.299988 -11.700012,-4.5 -18.100037,-1.299988c-5.299988,2.599976 -10.899963,4.899994 -16.599976,6.5c-9.899963,2.799988 -18.5,0.399994 -25.200012,-8.799988c14.200012,-6.800018 28.100037,-13.800018 42.300049,-20.300018c2.699951,-1.299988 6.399963,-1.699982 9.299927,-1.199982c7.900024,1.399963 15.700073,3.599976 23.600037,5.399963c2.900024,0.700012 5.799988,1.300018 8.700012,2.200012c5.699951,1.600006 11,0.900024 16.299988,-1.699982c6.400024,-3.000031 13.200043,-5.800018 20.000031,-8.800018z" id="svg_6" fill="#ffffff"/>
    <path d="m130.249969,281.850037c0.700012,-1.100006 1.800049,-3.5 3.300049,-5.5c3.799988,-4.899994 7.699951,-9.700012 11.699951,-14.600006c2.800049,-3.5 6.600037,-3.899994 10.200012,-1.299988c3.400024,2.5 4,6.100006 1.300049,9.799988c-4.400024,6.200012 -8.700012,12.399994 -13.600037,18.200012c-1.399963,1.699951 -4.5,3.200012 -6.599976,2.799988c-3.599976,-0.5 -6.5,-5 -6.300049,-9.399994z" id="svg_7" fill="#ffffff"/>
    <path d="m145.850006,298.050018c0.299988,-0.799988 0.5,-2 1.200012,-2.799988c4.599976,-5.700012 9,-11.599976 13.900024,-17.000031c3.699951,-4.099976 9.199951,-3.199982 11.199951,1.600006c0.600037,1.399994 0.5,3.900024 -0.299988,5.099976c-5,6.800049 -10.299988,13.400024 -15.600037,19.900024c-2.199951,2.599976 -8.499939,-0.199951 -9.799927,-4.299988c-0.300049,-0.699951 -0.400024,-1.400024 -0.600037,-2.5z" id="svg_8" fill="#ffffff"/>
    <path d="m178.249969,293.949982c7.300049,0.300049 10.400024,5.800049 7,10.800049c-2.799988,4.099976 -5.599976,8.199951 -9,11.799988c-3.799988,4 -13.099976,1.100037 -14.399963,-4.299988c-0.099976,-0.599976 0.299988,-1.5 0.700012,-2c3.799988,-4.599976 7.399963,-9.400024 11.399963,-13.800049c1.400024,-1.299988 3.500061,-2 4.299988,-2.5z" id="svg_9" fill="#ffffff"/>
    <path d="m123.950043,275.450012c-5.300049,-4.600006 -5.700043,-8.299988 -1.600037,-13.300018c1.400024,-1.699982 2.799988,-3.5 4.299988,-5.199982c2.5,-2.899994 5.800049,-2.599976 8.900024,-1.5c0.700012,0.199982 1.400024,2.699982 1,3.600006c-1.200012,2.5 -3,4.799988 -4.700012,7.100006c-2.200012,2.899994 -4.5,5.599976 -6.799988,8.399994c-0.400024,0.300018 -0.700012,0.5 -1.099976,0.899994z" id="svg_10" fill="#ffffff"/>
   </g>
  </g>
 </g>
</svg>