<?xml version="1.0"?>
<svg width="400" height="400" xmlns="http://www.w3.org/2000/svg" xmlns:svg="http://www.w3.org/2000/svg">
 <g>
  <g id="verein">
   <path d="m76.5,166.800018c-3.200012,-0.5 -5.5,0.5 -7.600006,2.799988c-4,4.400024 -4,10.400024 -7.399994,9.799988c-1.5,-0.199921 -1.899994,-1.799988 -1.700012,-3c0.700012,-4.399963 5.800018,-5.299988 6.200012,-8.099976c0.200012,-1.599976 -1,-2.700012 -2.5,-3c-3.600006,-0.599976 -7.200012,2.200043 -7.399994,3.599976c-0.200012,0.900024 0.299988,1.600067 0.199982,2.200012c-0.099976,0.700012 -1.799988,3.5 -2.299988,6.200012c-1.300018,8.200043 3.5,13.299988 7.899994,14c3,0.5 5.899994,-0.799957 8.100006,-2.799957c4.5,-4.100067 4.699982,-10 7.700012,-9.500031c1.599976,0.200043 1.699982,2.599976 1.599976,3.599976c-1.199982,7.799988 -7.899994,6.200012 -8.299988,9.200012c-0.200012,1.299988 0.799988,2 2,2.099976c2.200012,0.400024 6.799988,0.100037 8.299988,-1.799988c1.700012,-2.200012 3.200012,-6.899933 3.600006,-9.700012c1.5,-9.899933 -3.399994,-14.799988 -8.399994,-15.599976z" id="svg_35" fill="#ffffff"/>
   <path d="m166.000031,314.100006c-6,-2 -15.899963,-2.900024 -16.899963,-0.099976c-0.300049,0.899963 0.299927,1.599976 1.199951,1.899963c0.5,0.200012 1,0.299988 1.5,0.5c2,0.600037 1.900024,1.400024 1.300049,3.299988l-1.900024,5.5c-1.599976,4.700012 -2.700073,5.5 -4.200012,5c-0.700012,-0.299988 -1.299988,-0.699951 -2,-0.899963c-0.899963,-0.299988 -2.100037,0 -2.399963,1c-1,2.799988 8.899902,6.399963 10.299927,6.799988c2.200073,0.700012 6.200073,1.799988 8.400024,2.099976c1.300049,0.100037 2.599976,0.200012 3.099976,-1.199951c1,-2.900024 -4.599976,-1.600037 -4.099976,-5.5c0.300049,-1.800049 1.400024,-5.300049 2,-7c0.400024,-1.300049 1,-2.700012 1.700012,-4.900024c1.399963,-3.799988 3.799988,-1.299988 4.499939,-3.299988c0.800049,-2 -1.299927,-2.799988 -2.499939,-3.200012z" id="svg_36" fill="#ffffff"/>
   <path d="m94.799988,143.500061c0.799988,-2 -2,-5.299988 -3.799988,-6.100006c-1,-0.400024 -2.600006,-0.400024 -3,0.699951c-0.5,1.200012 1.899994,3.100067 -0.200012,8.100067c-2.399994,5.499969 -8.700012,6.499969 -14.5,4c-2.199982,-0.900055 -4.5,-3.400055 -3.199982,-6.400055c3,-7 9.499969,-3 11.299988,-7.099976c1,-2.299988 -0.300018,-4.499969 -2.600006,-5.499969c-4.399994,-1.900055 -7.799988,-0.800018 -8.5,0.899933c-0.299988,0.700012 -0.099976,1 -0.5,1.900024c-0.399994,1 -3.399994,2.700012 -5.100006,6.500031c-3.299988,7.799957 -0.399994,18 7.700012,21.499969c7.899994,3.400024 17.399994,-0.599976 20.899994,-8.900024c2,-4.5 0.900024,-8.299988 1.5,-9.599945z" id="svg_37" fill="#ffffff"/>
   <path d="m93,114.700043c2.399994,-2.499969 -0.600006,-6.700012 0.799988,-8.099945c0.400024,-0.400024 1,-1.100037 4.100006,2.099945l6.600006,6.800018c0.700012,0.799957 2.5,2.700012 2.799988,3.600006c0.600006,1.699951 -1.899994,3 -0.299988,4.599976c2.399994,2.299988 7.899994,-3.499969 9.399994,-5.099945c5.600037,-5.800079 4.800049,-7.700043 3.800018,-8.600067c-2.200012,-2.099976 -3.100006,2.500031 -6.800018,-1.099976l-9.5,-9.200012c-0.199982,-0.199982 -2,-1.700012 -0.899994,-2.900024c1.5,-1.599945 5.100006,2 7.700012,-0.699951c1.5,-1.600006 1.299988,-3.400024 -0.300018,-4.800049c-3.399994,-3.199951 -8.100006,-3 -9.299988,-1.799957c-0.600006,0.600006 -0.700012,0.899994 -1,1.499969c-0.399994,0.500031 -0.800018,1.299988 -2.100006,2.600067l-7.299988,7.599976c-1.200012,1.199982 -2.100006,1.899994 -2.800018,2.400024c-0.699982,0.499969 -1.100006,0.699921 -1.299988,0.899963c-1.700012,1.799957 -0.399994,7.299957 2.199982,9.799957c1.200012,1.200043 3,1.599976 4.200012,0.400024z" id="svg_38" fill="#ffffff"/>
   <path d="m124.399994,303.700043c-0.199951,-1.599976 -0.599976,-5.700012 -2,-6.599976c-0.800049,-0.600037 -2.200012,-0.600037 -2.800018,0.199951c-1.099976,1.5 -0.099976,7 -1.399994,8.700012c-1.299988,1.799988 -6.899994,2.400024 -8,3.900024c-0.600006,0.799988 -0.299988,2.200012 0.600006,2.799988c1.299988,1 5.399994,0.299988 6.899994,0c1.800018,-0.299988 5.100037,-0.700012 6.300049,-2.299988c1.200012,-1.600037 0.700012,-4.900024 0.399963,-6.700012z" id="svg_39" fill="#ffffff"/>
   <path d="m132.800018,304.399994c-0.900024,-0.5 -2.300049,-0.400024 -2.799988,0.599976c-0.900085,1.5 0.599915,6.900024 -0.500061,8.800049c-1.099976,1.899963 -6.599976,3.099976 -7.499939,4.699951c-0.500061,0.900024 0,2.200012 0.799988,2.700012c1.400024,0.799988 5.400024,-0.200012 6.900024,-0.700012c1.799927,-0.5 5,-1.199951 6.099976,-2.899963c1,-1.700012 0.200012,-4.900024 -0.300049,-6.700012c-0.399902,-1.599976 -1.299927,-5.599976 -2.699951,-6.5z" id="svg_40" fill="#ffffff"/>
   <path d="m168.300018,63.100006c0.900024,3 1.299927,6.100037 1.700012,9.200012c0.299988,1.900024 0.499939,4.599976 0.499939,6.5c-0.099976,2.799988 -2.699951,2.200012 -2.400024,4.5c0.400024,2.799988 4.800049,2.5 6.700073,2.200012c2,-0.200012 6.299927,-1.100037 6,-3.900024c-0.300049,-2.099976 -2.400024,-0.799988 -3.400024,-3.399963c-0.399963,-1.100037 -0.599976,-2.600037 -0.800049,-3.800049c-0.099976,-0.899963 -0.399902,-3.699982 0.900024,-3.799988c0.900024,-0.099976 2.099976,0.799988 2.800049,1.200012l14.599976,10.099976c0.699951,0.5 1.5,0.900024 2.300049,0.800018c2.899902,-0.399994 1.899902,-6.100006 1.599976,-8.100006l-1.400024,-11c-0.199951,-1.599976 -0.5,-4.299988 -0.199951,-5.899994c0.5,-2 2.799988,-1.399994 2.5,-3.899994c-0.400024,-3 -5,-2.100006 -6.900024,-1.900024c-1.799988,0.300049 -6.099976,0.700012 -5.799988,3.400024c0.299988,2.299988 2.399963,1.399994 3.299988,3.099976c0.5,0.900024 0.700012,2.800049 0.900024,3.800049c0.099976,0.699951 0.299927,2.499969 -0.800049,2.599976c-0.800049,0.099976 -2.300049,-0.900024 -2.900024,-1.299988l-11.199951,-7.5c-2.099976,-1.5 -2.599976,-1.600037 -5.299988,-1.300018c-1.900085,0.199982 -7.700012,0.800018 -7.299988,3.800018c0.5,2.5 3.400024,0.5 4.599976,4.599976z" id="svg_41" fill="#ffffff"/>
   <path d="m269.800018,96.200073c-2.099976,1.799957 -3.400024,-0.500031 -4.900024,1.299988c-1.800049,2.100037 1.400024,5.199982 2.900024,6.499969c1.5,1.299988 5.099976,4 6.900024,1.799988c1.399902,-1.599945 -1,-2.299957 0.299988,-4.799988c0.499939,-1 1.499939,-2.200012 2.299988,-3.200012c0.599976,-0.699951 2.400024,-2.799988 3.400024,-1.899963c0.699951,0.600006 0.899902,2.099976 1,2.899963l2.399902,17.600037c0.100098,0.899963 0.300049,1.700012 1,2.299988c2.200073,1.800018 5.800049,-2.799988 7,-4.299988l7.200073,-8.5c1.099976,-1.200012 2.799927,-3.299957 4.199951,-4.100037c1.800049,-1 3,1.100037 4.599976,-0.699951c1.900085,-2.300049 -1.799927,-5.100037 -3.199951,-6.300049c-1.400024,-1.199921 -4.599976,-4.099976 -6.400024,-2c-1.499939,1.800079 0.700073,2.700043 0,4.5c-0.400024,1 -1.599976,2.400024 -2.299927,3.200043c-0.5,0.600006 -1.600098,1.899994 -2.400024,1.199982c-0.599976,-0.499969 -0.799988,-2.299988 -1,-3l-2,-13.399963c-0.400024,-2.600037 -0.599976,-3 -2.599976,-4.700012c-1.5,-1.299988 -5.800049,-5.100006 -7.700073,-2.800018c-1.699951,2 1.800049,2.700012 -0.499939,6.400024c-1.600037,2.699982 -3.700012,5 -5.600037,7.400024c-1.399963,1.399933 -3.199951,3.399933 -4.599976,4.599976z" id="svg_42" fill="#ffffff"/>
   <path d="m302.399994,143.000031c1.900024,3.400024 7,7.400024 9.800049,5.799988c0.699951,-0.399963 1.5,-1.700012 1,-2.5c-0.400024,-0.799957 -2.900024,-1.200012 -4.5,-4c-1,-1.799957 -0.800049,-5.099945 1.099976,-6.099945c0.599976,-0.400055 0.900024,0.299988 1.099976,0.699982l4.599976,8.099976c0.700073,1.200043 1.599976,2.099976 4.099976,0.700012c2.800049,-1.600037 6.100098,-7.100037 2.5,-13.499969c-3.199951,-5.600067 -10.099915,-8.100067 -15.799927,-4.900055c-4.800049,2.799988 -7.699951,9 -3.900024,15.700012zm12.5,-9.900024c1.199951,-0.700012 3,-0.400024 3.699951,0.799988c0.800049,1.400024 0.200073,2.799988 -1.099976,3.600067c-1.299927,0.799957 -1.799927,-0.600067 -2.400024,-1.600067c-0.499878,-0.899963 -1.599976,-2 -0.199951,-2.799988z" id="svg_43" fill="#ffffff"/>
   <path d="m115,86.600006c0.700012,0.200012 1.799988,1 4.899994,5.5l2.400024,3.5c3.400024,4.900055 4,6.5 3.900024,7.299988c-0.099976,1.100037 -1.200012,2.100037 -0.400024,3.200012c1.599976,2.299988 6,-0.799988 7.5,-1.799988c7.700012,-5.299988 6.900024,-7.100006 6.199951,-8.200012c-0.799927,-1.099976 -1.699951,-0.700012 -3,-0.599945c-1,0.099945 -1.299927,0.499969 -5.699951,-5.800079l-2.400024,-3.499939c-1.699951,-2.500031 -3.799927,-5.700012 -3.699951,-6.900024c0.199951,-1.5 1.599976,-2.299988 0.699951,-3.600006c-1.599976,-2.399994 -6.100006,0.500031 -8.199982,2c-0.700012,0.500031 -7.900024,5.500031 -6.200012,8c1,1.300018 2.399994,0.500031 4,0.899994z" id="svg_44" fill="#ffffff"/>
   <path d="m236.700043,85.500061c-0.200073,0.499969 -0.700012,1.700012 1.799927,2.899994l16,7.399963c2.600098,1.200012 4.200073,2.400055 4.800049,2.700043c1.599976,0.700012 5.800049,-3.100006 7.099976,-5.700043c0.5,-1.099976 0.5,-2.799988 -0.699951,-3.299957c-3.200073,-1.400055 -3.5,5.099945 -11.5,1.399994c-4.099976,-1.900024 -4.599976,-1.800049 -2,-7.5c0.600037,-1.299988 1.199951,-2.799988 2.900024,-2c3.899963,1.800018 -0.400024,4.800018 2,5.899963c2.299927,1.100037 4.799927,-3.5 5.5,-5.099945c0.699951,-1.500031 2.599976,-6 0.299927,-7c-2.799927,-1.300018 -2.5,4.099945 -5.5,2.699982c-2.399963,-1.100037 -2.5,-1.200012 -1.399963,-3.5c2.100037,-4.5 2,-5.400024 6.299988,-3.5c7.400024,3.399963 3.199951,6 6.300049,7.399963c1.5,0.700012 2.699951,-0.599976 3.299927,-1.899963c0.800049,-1.700012 1.599976,-5.899994 -0.599976,-7c-0.599976,-0.299988 -1.699951,0.200012 -7,-2.199982l-11.199951,-5.200043c-1.600098,-0.700012 -4.700073,-2.599976 -5.800049,-0.200012c-1.299988,2.800049 3.099976,1.100037 0.599976,7.100037c-2.799927,7.200012 -2.599976,6.5 -6.299927,13.399963c-2.100098,3.900024 -3.900024,1.100037 -4.900024,3.200043z" id="svg_45" fill="#ffffff"/>
   <path d="m219.600067,84.800018c6,1 12.5,-1 15.099976,-6.899963c0.5,-1.100037 0.599976,-1.200043 1.699951,-1.200043c1,0 2.099976,-0.600006 2.300049,-1.699982c0.199951,-1.200012 0.100037,-3.499969 -7.800049,-4.900024c-2.199951,-0.399994 -8.599976,-1.199951 -9.099915,1.900024c-0.600037,3.900024 4.399963,1.200012 3.799988,4.699982c-0.300049,1.500031 -1.5,2.399994 -3,2.200043c-2.700073,-0.5 -7.300049,-4.399994 -5.900024,-13.100037c0.699951,-4.5 3.599976,-7.100006 7.299988,-6.5c5.700012,1 4.800049,6.900024 8.899963,7.5c2.300049,0.400024 3.700073,-1.599976 4,-3.599976c0.400024,-2.200012 -0.5,-6.699982 -3.099915,-7.200012c-0.700012,-0.099976 -2,0.299988 -2.700012,0.200012c-1.100037,-0.200012 -2.900024,-1.699982 -6.700073,-2.299988c-9.099976,-1.5 -17.699951,3.600006 -19.099976,12.600006c-1.5,9.299957 5.300049,16.799957 14.300049,18.299957z" id="svg_46" fill="#ffffff"/>
   <path d="m135.399994,76.500061c3.400024,7 3.099976,6.299957 5.699951,13.700012c1.5,4.299988 -1.899902,3.699982 -1,5.899933c0.200073,0.5 0.800049,1.700012 3.400024,0.600037l16.200073,-6.900024c2.599976,-1.099976 4.699951,-1.5 5.199951,-1.700012c1.599976,-0.699951 1.599976,-6.399963 0.5,-9.099976c-0.5,-1.099976 -1.699951,-2.299988 -3,-1.700012c-3.199951,1.300049 1.400024,5.900055 -6.699951,9.400024c-4.200073,1.800018 -4.400024,2.200012 -6.900024,-3.599976c-0.599976,-1.200012 -1.200073,-2.700012 0.400024,-3.400024c4,-1.700012 3.299927,3.500031 5.699951,2.400024c2.300049,-1 0.599976,-5.899994 -0.099976,-7.5c-0.700073,-1.5 -2.700073,-5.900024 -5,-5c-2.799988,1.199951 1.299927,4.600006 -1.700073,5.899994c-2.399902,1.100006 -2.5,1 -3.5,-1.299988c-1.899902,-4.500031 -2.699951,-5.100006 1.700073,-7c7.5,-3.200043 6.599976,1.699982 9.700012,0.399994c1.499939,-0.700012 1.399963,-2.399994 0.899963,-3.700012c-0.699951,-1.699982 -3.300049,-5.200012 -5.599976,-4.200012c-0.599976,0.299988 -1,1.400024 -6.299988,3.599976l-11.400085,4.800049c-1.599915,0.699951 -5.099976,1.699951 -4.099976,4.100006c1.400024,2.799957 3.100098,-1.600067 5.900024,4.299988z" id="svg_47" fill="#ffffff"/>
   <path d="m186.200043,318.000031c-6,-0.599976 -13,1.799988 -13.700073,8.599976c-0.499939,4.900024 1.800049,10.5 8,11.200012c0.700073,0.100037 1.400024,0 2,0.100037c0.500061,0.099976 0.900024,0.299988 0.800049,0.899963c-0.199951,1.700012 -2.699951,4.600037 -4.800049,5.400024c-0.399902,0.099976 -1,0.5 -1.099976,1c-0.099976,1.200012 4,3.399963 5.200073,3.599976c2.299927,0.200012 7.5,-4.799988 8.899902,-6.399963c3.30011,-3.600037 5.900024,-7.700012 6.400024,-12.600037c0.900024,-7.299988 -5.299927,-11.200012 -11.699951,-11.799988zm2.099976,12.5c-0.099976,1.200012 -0.900024,2.299988 -2.299988,2.200012c-2.500061,-0.200012 -3.400085,-3.799988 -3.100037,-5.900024c0.100037,-1.299988 1.100037,-2.700012 2.5,-2.5c2.400024,0.200012 3.099976,4.400024 2.900024,6.200012z" id="svg_48" fill="#ffffff"/>
   <path d="m233.700043,195.700043c1.100037,-0.400024 1.799927,-1.299988 2.699951,-2c0.600037,-0.400024 1.300049,-0.599976 1.900024,-1.099945c1.199951,-0.900055 1.800049,-2.600067 1.400024,-4c-0.200073,-1 -1,-1.400024 -1.899963,-1.600067c-1.100037,-0.200012 -3.100037,0.799988 -3.900085,-0.099976c-0.199951,-0.200012 -0.299927,-0.399994 -0.299927,-0.699982c-0.100098,-0.800018 0.399963,-1.800018 0.5,-2.500031c0.199951,-0.900024 0.299927,-1.700012 0.299927,-2.599976c0,-1.800049 -0.199951,-3.800049 -1.399963,-5.300049c-0.899963,-1.099976 -1.399963,-1.899963 -2.799988,-2.399963c-1.599976,-0.600037 -3.200012,-0.400024 -4.700073,-0.799957c-1.499939,-0.400024 -2.299927,-2.100037 -2.69989,-3.500031c-0.400085,-1.100037 -0.600037,-3.400024 1,-3.700012c0.399963,-0.100037 1,0.200043 1.399963,0.200043c1.099976,0.099945 2.400024,0 3.5,-0.300079c0.599976,-0.199951 1.299988,-0.299988 1.900024,-0.599976c0.799927,-0.400024 1.5,-0.799988 2.200012,-1.299988c0.899963,-0.5 1.799988,-0.5 2.299988,-1.400024c0.700012,-1.099976 1,-2.599976 1,-3.799957c0,-1.200043 0.099976,-3.200043 -1.400024,-3.599976c-0.800049,-0.200043 -1.899963,0.199921 -2.599976,0.699921c-0.800049,0.600037 -0.600098,1.5 -1.299988,2.200043c-0.900085,0.799957 -2.700012,0.799957 -3.800049,0.700012c-1,-0.100006 -3.299988,-0.200043 -3.299988,-1.500031c0,-0.799988 0.699951,-1.199982 1.299988,-1.700012c0.800049,-0.599976 1.499939,-1.299988 2.299988,-1.899963c0.599976,-0.499969 1.099976,-1 1.800049,-1.400024c0.700012,-0.400024 1.399902,-0.799988 2.099976,-1.299988c1.900024,-1.400024 3.699951,-2.400024 3.900024,-4.899994c0.099976,-1.700043 0.399902,-3.500031 -0.100037,-5.100006c-0.500061,-1.600037 -2.700012,-1 -3.799988,-0.199982c-0.800049,0.599945 -1.300049,1.299988 -1.800049,2.299988c-0.299927,0.600006 -0.799927,1 -1,1.600006c-0.099976,0.399994 -0.099976,0.799988 -0.299927,1.100006c-0.400024,0.799957 -1.400024,1.299988 -2.200073,1.699982c-1,0.399963 -2.199951,0.600006 -3.299927,0.899963c-0.700073,0.200012 -2,0.800079 -2.700073,0.800079c-1.199951,0 -2.199951,-1.600067 -2.199951,-2.700043c0,-1 0.599976,-1.799988 1.299988,-2.399994c1.299988,-1.399994 3.499939,-2.700043 3.399963,-4.800018c-0.399963,-6.400024 -6.799927,-0.400024 -8.900024,-5c-4.299927,-1.400024 -7.099976,1.099976 -11.399902,0.400024c-1.400024,1 -1.100037,3.199951 -0.299988,4.599976c1.799988,2.500031 0.69989,5.700012 1.099915,8.900055c-2.5,3.199921 -0.699951,7.099945 -0.299927,10c0.099976,1 1.099976,2.199921 1.399963,3.199921c0.399963,1.100037 0.600037,2.200012 0.700012,3.300049c0.299988,2.199951 0.199951,4.399994 0,6.599976c-0.200073,2.200012 -0.400024,4.400024 -0.5,6.700012c0,1.399963 0.299927,2.5 -0.300049,3.899963c-0.299927,0.700012 -1.099915,2.200043 -0.099915,2.700012c0.499939,0.200043 1.299988,0 1.799988,0.200043c0.799927,0.299988 2.5,1.499969 2.799927,2.299988c0.700073,1.700012 0.200073,4.100037 0.099976,5.799957c-0.199951,1.800049 -0.399902,3.700012 -0.299927,5.5c0,0.900024 0.099976,1.800079 0.299927,2.700043c0.100098,0.799957 0.30011,1.499969 0.500061,2.199982c0.100037,0.500031 0.200012,0.900055 0.600037,1.200012c0.899902,0.799988 2.099976,0.600006 3.099976,0.799988c1,0.200012 2,0.800018 3,1.099976c1.100037,0.300049 2.400024,0.300049 3.599976,0.300049c1.700012,0 5.300049,0 5.800049,-2.200012c0.599976,-2.799988 -3,-5 -5.100037,-5.900024c-0.799988,-0.399933 -1.299988,-0.299988 -1.399963,-1.299988c-0.100098,-0.799988 0,-1.599976 0.200012,-2.400024c0.599915,-2.199951 1.799988,-4.399963 1.899963,-6.699921c0,-0.800079 0.100037,-1.800079 0.5,-2.500031c0.5,-0.800049 1.400024,-1.300049 1.900024,-0.400024c0.5,0.900055 0.700012,2.099976 0.899963,3.099976c0.499939,1.800079 0.700012,3.800079 1.399963,5.5c0.5,1.300079 1.300049,2.600037 2.700073,3.200043c2.099976,0.899933 3.799927,-0.100067 5.599976,-0.800018z" id="svg_49" fill="#ffffff"/>
   <path d="m317.800018,162.899994c2.699951,-1 4,-4 3,-6.699982c-1,-2.700043 -4,-4 -6.700073,-3c-2.699951,1 -4,4 -3,6.699982c1.000122,2.700012 4.000122,4 6.700073,3z" id="svg_50" fill="#ffffff"/>
   <path d="m320.600067,188.200073c-2.700073,1 -4,4 -3,6.699982c1,2.700043 4,4 6.699951,3c2.700012,-1 4,-4 3,-6.699982c-1,-2.600067 -4,-4 -6.699951,-3z" id="svg_51" fill="#ffffff"/>
   <path d="m157.700043,270.500061c-3.300049,0 -6,2.700012 -6,6c0,3.299957 2.699951,6 6,6c3.299988,0 6,-2.700043 6,-6c0,-3.299988 -2.700012,-6 -6,-6z" id="svg_52" fill="#ffffff"/>
   <path d="m200.800018,89.700043c-61.099976,0.099976 -110.800049,49.800018 -110.700043,111c0,29.599976 11.600006,57.400024 32.600067,78.299988c20.899902,20.900024 48.799927,32.400024 78.399902,32.299988c0,0 0,0 0,0c29.600098,0 57.400024,-11.599976 78.300049,-32.5c20.900024,-21 32.400024,-48.799988 32.400024,-78.399963c0,-29.600037 -11.599976,-57.400024 -32.599976,-78.299988c-21,-21.000061 -48.900024,-32.500061 -78.400024,-32.400024zm56.400024,44.899963c-0.099976,0 -0.200012,0 -0.300049,0c-0.5,0 -0.899963,0.5 -0.899963,1c0.100037,0.5 0.399963,0.900055 1,0.900055c2,0 2.200012,2.099945 2.100037,2.299957c0,1.5 -0.100037,2.700043 -1.5,3.899963c-1.200073,1 -2.900024,1.700012 -4.400024,1.700012c-1,0 -2.099976,-0.5 -2.800049,-1.099976c-0.099976,-0.100006 -0.199951,-0.200012 -0.299927,-0.299988c-0.200073,-0.200012 -0.299988,-0.300049 -0.5,-0.499969c-0.300049,-0.400055 -0.600037,-0.800079 -0.900024,-1.100067c-0.599976,-1 -0.899963,-2.099976 -1,-3.099976c0,-3.799957 4.199951,-7.600037 9.699951,-7.700012c1,0 2,0.099976 3.099976,0.400024l0,0l0.100098,0c0,0 0.200012,0 0.599976,0.199982c1.299927,0.499969 3.900024,1.800018 4.699951,6.199982c0.900085,5.100067 2.400024,23 3,28.400024l-6.299927,0l-0.600037,-25.799988c0,-0.100037 0,-2.300049 -0.600037,-3.400024c-0.399963,-1 -2.199951,-2 -4.199951,-2zm1.699951,31.200012l-4.300049,0c-0.099976,0 -0.299927,0 -0.399902,0l3.199951,-20.900024c0.400024,-0.199951 0.900024,-0.5 1.199951,-0.699921c0.200073,-0.200043 0.5,-0.400055 0.700073,-0.600067c0.099976,-0.099945 -0.400024,22.200012 -0.400024,22.200012zm-6,6.5c0,0 0,0 0,0l6.199951,0l0,36.299988l-5.5,-10.5l-7.699951,2.900024c3.300049,-7.799957 6.100037,-23.799957 7,-28.700012zm0.599976,-1.900024c-0.599976,0 -1.199951,-0.599976 -1.199951,-1.299988c0,-0.700012 0.5,-1.299988 1.199951,-1.299988l16.700073,0c0.599976,0 1.199951,0.5 1.199951,1.299988c0,0.799988 -0.599976,1.299988 -1.199951,1.299988l-16.700073,0zm9.100098,1.900024l8.099976,0c0.5,4.900055 2.199951,21.099976 5.599976,28.700012l-8.099976,-2.900024l-5.599976,10.100067l0,-35.900055zm-61.800049,-77.299988c26.699951,0 51.799927,9.799988 71.299927,27.700012c0.200073,0.200012 -78.799927,0.399963 -78.799927,0.399963l0.199951,65.900024l-56.499939,-72.499969c18.200012,-13.900055 40.399963,-21.500031 63.799988,-21.500031zm-63.5,78.599976c4.299927,0 7.700012,3.5 7.700012,7.700012c0,4.299988 -3.500061,7.700012 -7.700012,7.700012c-4.299988,0 -7.700073,-3.400024 -7.700073,-7.700012c0.000122,-4.200012 3.500122,-7.700012 7.700073,-7.700012zm20.400024,112.900024c-5.5,0 -9.899963,-4.400024 -9.899963,-9.900024c0,-5.5 4.399963,-9.899963 9.899963,-9.899963c5.5,0 9.900024,4.399963 9.900024,9.899963c0,5.400024 -4.400024,9.900024 -9.900024,9.900024zm32.400024,-3.900024c-1.400024,1.099976 -3.299988,0.799988 -4.400024,-0.5l-33.099976,-42.5c-1.100098,-1.299988 -0.799988,-3.299988 0.599976,-4.399994c1.299927,-1.100006 3.299927,-0.800018 4.400024,0.600006l33.099976,42.399994c0.900024,1.399994 0.699951,3.300049 -0.599976,4.399994zm-27,-55c1.399902,-1.099945 3.299927,-0.799988 4.399902,0.5l12.200073,15.400055c1.100037,1.399933 0.799927,3.299957 -0.5,4.399933c-1.399963,1.100037 -3.300049,0.799988 -4.399963,-0.599976l-12.200012,-15.400024c-1.100098,-1.299988 -0.800049,-3.199951 0.5,-4.299988zm33,-23.700012c-0.200073,1.700012 -1.800049,2.900024 -3.5,2.599976l-47.200073,-6.899963l13.400024,17.399963l-15.300049,11.200043l-19,-24.700043l-11.599976,9.100037l13.599976,17.299988c1.100098,1.400024 0.800049,3.300018 -0.499939,4.400024c-1.399963,1.099976 -3.299988,0.799988 -4.399963,-0.600037l-14.700073,-18.799988c-0.399994,-0.200012 -0.199982,-0.400024 -0.5,-0.799988c-1.100006,-1.299988 -0.799988,-3.299988 0.5,-4.400024l0.100006,-0.099976c0.100006,-0.100037 0.100006,-0.100037 0.100006,-0.200012c0.100006,0 0.100006,0 0.199982,-0.099976l22.400055,-18.400024c0.299988,0 0.5,-0.099976 0.699951,-0.099976l63.099976,9.199951c1.600098,0.600037 2.800049,2.200104 2.600098,3.900024zm7.899963,-1.399933l-6.399963,-8.200043l0,-67.199951l45,0l0.099976,91.699951c-3.900024,-0.099976 -8,-0.200012 -14.200073,-2.200012c-7.199951,-2.399933 -14.399902,-5.699951 -21.899902,-11.899963l-2.600037,-2.199982zm80.299988,-66.700043c14.299927,18.400055 22.099976,40.799988 22.099976,64.5c0,29.099976 -11.800049,55.5 -30.800049,74.599976c-2.799927,2.800049 -5.799927,5.5 -8.899902,8l-54.200073,-69.5c12.100098,7.900024 23.400024,10.5 34.800049,9.099976c23.099976,-2.799988 35.900024,-23.799988 36.400024,-24.399963c0.400024,-0.700012 0.699951,-1.799988 0.699951,-3.400024c0,-1.299988 -0.099976,-45.399963 -0.099976,-58.899963z" id="svg_53" fill="#ffffff"/>
   <path d="m347.800018,185.200073c-0.300049,-1.700012 -1.099976,-7 -3.700073,-6.599976c-1.699951,0.299957 -0.899902,2.399933 -2.399902,2.599976c-1,0.099945 -5.100098,-1.200043 -6.200073,-1.500031c-1,-0.400024 -3.499939,-0.700012 -3.599976,-2.099945c-0.099976,-0.900055 1.5,-1.700043 2.100037,-2.200043c2,-1.299988 5.099915,-3.5 5.899963,-3.700012c1.199951,-0.199982 1.599976,1.800018 3.199951,1.599976c0.600098,-0.099945 2.800049,-0.099945 1.300049,-9c-0.300049,-2.199951 -1.599976,-8.899963 -4.900024,-8.299988c-0.900024,0.100037 -1.499939,0.700012 -1.499939,1.500031c0,1.700012 -0.400085,2.199982 -3,3.899994l-17.200012,11.5c-1.799988,1.300018 -3.099976,2.099976 -2.700073,4.600006c0.400024,2.299957 2.400024,2.799957 4.300049,3.399994l20.900024,6.300018c3.5,1.099945 3.400024,1.299988 3.900024,3c0.299927,1 1,1.799957 2.099976,1.599945c1.5,-0.200012 2.299927,-1.299957 1.5,-6.599945z" id="svg_54" fill="#ffffff"/>
   <path d="m199.800018,39.200043c-88.800049,0.099976 -160.700012,72.199951 -160.600037,160.999969c0.100006,88.800018 72.200012,160.699982 161.000061,160.600006c88.799988,-0.099976 160.699951,-72.200012 160.599976,-161c-0.099976,-88.799988 -72.199951,-160.700012 -161,-160.599976zm0.400024,315.799988c-85.600037,0.099976 -155.000031,-69.200012 -155.200043,-154.799957c-0.099976,-85.600067 69.200012,-155.100067 154.800079,-155.200043c85.599915,-0.099976 155,69.200043 155.099915,154.799988c0.100037,85.599976 -69.099976,155.099976 -154.699951,155.200012z" id="svg_55" fill="#ffffff"/>
   <path d="m280.600067,305.399994c-1.300049,-1.799988 -0.400024,-7.299988 -1.5,-8.700012c-0.600098,-0.799988 -2,-0.899963 -2.800049,-0.200012c-1.299988,1 -1.800049,5.100037 -1.900024,6.700012c-0.199951,1.799988 -0.699951,5.100037 0.5,6.700012c1.200073,1.599976 4.5,2 6.300049,2.299988c1.5,0.299988 5.600037,0.900024 6.900024,-0.099976c0.799927,-0.600037 1.199951,-2 0.599976,-2.799988c-1.200073,-1.5 -6.700012,-2.200012 -8.099976,-3.900024z" id="svg_56" fill="#ffffff"/>
   <path d="m218.000031,322.899994c-2.299988,0.299988 -4.200012,1.700012 -4.899963,1.799988c-0.400024,0 -0.700073,-0.399963 -0.800049,-0.700012c-0.199951,-1.399963 1,-3.599976 2.400024,-5.5c0.299988,-0.399963 1,-1.299988 0.900024,-1.799988c-0.100098,-1.299988 -5.400024,-2.099976 -6.300049,-1.799988c-2.599976,0.299988 -8.699951,10.5 -8,17.5c0.900024,7.200012 6.800049,12.099976 14.599976,11.200012c7.800049,-0.900024 11.900024,-7.299988 11.200073,-13.200012c-0.5,-4.5 -4.5,-8 -9.100037,-7.5zm-1.500061,14.600037c-2,0.200012 -4.299927,-3 -4.499939,-4.900024c-0.100037,-1.299988 0.299988,-2.699951 1.799988,-2.899963c2.5,-0.299988 4.300049,3.599976 4.5,5.599976c0.099976,1.099976 -0.599976,2 -1.800049,2.200012z" id="svg_57" fill="#ffffff"/>
   <path d="m269.399994,313.300018c-1.199951,-1.900024 0.300049,-7.299988 -0.599976,-8.799988c-0.5,-0.900024 -1.900024,-1.100037 -2.799988,-0.5c-1.400085,0.899963 -2.299988,4.899963 -2.600037,6.399963c-0.399963,1.800049 -1.300049,5 -0.199951,6.700012c1,1.700012 4.299927,2.400024 6.099976,2.900024c1.5,0.399963 5.5,1.5 6.900024,0.599976c0.899902,-0.5 1.299927,-1.799988 0.799988,-2.700012c-1,-1.599976 -6.500061,-2.699951 -7.600037,-4.599976z" id="svg_58" fill="#ffffff"/>
   <path d="m246.499969,320.700043c-0.299927,-0.900024 2.400024,-2.700012 1.200073,-6.200012c-1.5,-4.299988 -8.5,-2.899963 -11.700012,-1.799988c-4.799988,1.700012 -9.600037,6 -8.799988,8.099976c0.299927,0.800049 1.400024,2.100037 2.199951,1.800049c0.700073,-0.300049 1.600037,-2.200012 3.600037,-2.800049c1.600037,-0.599976 3.600037,0.100037 4.100037,1.600037c1.299927,3.799988 -4.200073,5.5 -3.600098,7.099976c0.300049,0.799988 1.800049,2.900024 2.800049,2.600037c0.400024,-0.100037 1.300049,-0.900024 2.800049,-1.400024c2.099976,-0.700012 4.699951,-0.5 5.5,1.900024c0.899902,2.5 -1.5,4.899963 -4,5.799988c-2.600037,0.899963 -4.100098,0.599976 -5.300049,1c-1.199951,0.399963 -2,1.700012 -1.5,3c1,2.899963 8.300049,0.799988 10.300049,0.099976c10.699951,-3.700012 13.5,-10.700012 11.699951,-15.899963c-2.400024,-7.100037 -8.799988,-3.400024 -9.300049,-4.900024z" id="svg_59" fill="#ffffff"/>
    </g>
  </g>
</svg>